<svg width="360" height="5353" xmlns="http://www.w3.org/2000/svg"><g fill="none" fill-rule="evenodd"><path d="M61.743 64.607l-9.42-6.773a.315.315 0 00-.503.224L50.816 69.47a.326.326 0 00.454.326l10.426-4.638a.318.318 0 00.047-.55" fill="#2EC5B6" opacity=".2"/><path stroke="#2EC5B6" stroke-width="2" stroke-linecap="round" stroke-linejoin="round" d="M62.435 61.99l-10.329-7.426-1.102 12.513z"/><path d="M318.532 337.193l-7.22-6.668a.41.41 0 01-.021-.584l6.782-7.214a.42.42 0 01.59-.023l7.217 6.666a.411.411 0 01.02.586l-6.782 7.213a.42.42 0 01-.588.022" fill="#2E6BD1" opacity=".2"/><path stroke="#2E6BD1" stroke-width="2" stroke-linecap="round" stroke-linejoin="round" d="M322.774 337.214l-7.827-7.228 7.35-7.821 7.828 7.228z"/><g stroke-width="2" stroke="#2E6BD1" stroke-linecap="round"><path d="M20.165 256.357l5.493 10.33m2.42-7.911l-10.331 5.493"/><path d="M21.924 256.894l5.492 10.33m2.42-7.91l-10.331 5.492" opacity=".2"/></g><g stroke="#2EC5B6" stroke-linecap="round" stroke-width="2"><path d="M326.594 65.09l3.421 11.19m3.884-7.305l-11.189 3.42"/><path d="M328.218 65.954l3.42 11.188m3.885-7.304l-11.19 3.42" opacity=".2"/></g><path d="M166.62 394.302l-10.764 1.18a.293.293 0 00-.21.467l6.43 8.5c.138.182.427.15.52-.058l4.334-9.678c.093-.208-.08-.436-.31-.41" fill="#FF9F1C" opacity=".2"/><path stroke="#FF9F1C" stroke-width="2" stroke-linecap="round" stroke-linejoin="round" d="M165.465 392.067l-11.803 1.294 7.05 9.32z"/><path d="M193.784 15.868l-9.441 4.418a.438.438 0 01-.584-.212l-4.407-9.464a.44.44 0 01.211-.585l9.442-4.417a.439.439 0 01.583.212l4.408 9.463a.44.44 0 01-.212.584" fill-opacity=".2" fill="#FF9F1C"/><path stroke="#FF9F1C" stroke-width="2" stroke-linecap="round" stroke-linejoin="round" d="M195.494 11.735l-10.236 4.79-4.78-10.259 10.238-4.79z"/><g stroke-width="2" stroke="#2E6BD1" stroke-linecap="round" stroke-linejoin="round"><path d="M-1 472.87l8.09-8.185 7.878 8.185 7.236-7.517 7.883 8.19 7.424-7.713 7.44 7.729"/><path opacity=".2" d="M1.625 472.87l8.09-8.185 7.878 8.185 7.236-7.517 7.883 8.19 7.424-7.713 7.44 7.729"/></g><path d="M278.647 485.302l-9.995 1.18c-.215.026-.323.285-.195.467l5.971 8.5c.128.182.396.15.482-.058l4.025-9.678c.086-.208-.074-.436-.288-.41" fill="#2EC5B6" opacity=".2"/><path stroke="#2EC5B6" stroke-width="2" stroke-linecap="round" stroke-linejoin="round" d="M277.575 483.067l-10.96 1.294 6.546 9.32z"/><g stroke="#2EC5B6" stroke-linecap="round" stroke-width="2"><path d="M351.594 646.09l3.421 11.19m3.884-7.305l-11.189 3.42"/><path d="M353.218 646.954l3.42 11.188m3.884-7.304l-11.188 3.42" opacity=".2"/></g><path d="M345.62 1303.302l-10.764 1.18a.293.293 0 00-.21.467l6.43 8.5c.138.182.427.15.52-.058l4.334-9.678c.093-.208-.08-.436-.31-.41" fill="#2E6BD1" opacity=".2"/><path stroke="#2E6BD1" stroke-width="2" stroke-linecap="round" stroke-linejoin="round" d="M344.465 1301.067l-11.803 1.294 7.05 9.32z"/><path d="M269.784 609.868l-9.441 4.418a.438.438 0 01-.584-.212l-4.407-9.464a.44.44 0 01.211-.585l9.442-4.417a.439.439 0 01.583.212l4.408 9.463a.44.44 0 01-.212.584" fill-opacity=".2" fill="#FF9F1C"/><path stroke="#FF9F1C" stroke-width="2" stroke-linecap="round" stroke-linejoin="round" d="M271.494 605.735l-10.236 4.79-4.78-10.259 10.238-4.79z"/><path d="M146.784 1268.868l-9.441 4.418a.438.438 0 01-.584-.212l-4.407-9.464a.44.44 0 01.211-.585l9.442-4.417a.439.439 0 01.583.212l4.408 9.463a.44.44 0 01-.212.584" fill-opacity=".2" fill="#FF9F1C"/><path stroke="#FF9F1C" stroke-width="2" stroke-linecap="round" stroke-linejoin="round" d="M148.494 1264.735l-10.236 4.79-4.78-10.259 10.238-4.79z"/><path d="M242.774 1372.66a5.094 5.094 0 11-10.188 0 5.094 5.094 0 0110.188 0" fill="#2EC5B6" opacity=".2"/><path d="M244.724 1374.61a5.094 5.094 0 11-10.188 0 5.094 5.094 0 0110.188 0z" stroke="#2EC5B6" stroke-width="2" stroke-linecap="round" stroke-linejoin="round"/><g stroke-width="2" stroke="#2E6BD1" stroke-linecap="round" stroke-linejoin="round"><path d="M13 1338.87l8.09-8.185 7.878 8.185 7.236-7.517 7.883 8.19 7.424-7.713 7.44 7.729"/><path opacity=".2" d="M15.625 1338.87l8.09-8.185 7.878 8.185 7.236-7.517 7.883 8.19 7.424-7.713 7.44 7.729"/></g><path d="M32.774 687.66a5.094 5.094 0 11-10.188 0 5.094 5.094 0 0110.188 0" fill="#2E6BD1" opacity=".2"/><path d="M34.724 689.61a5.094 5.094 0 11-10.188 0 5.094 5.094 0 0110.188 0z" stroke="#2E6BD1" stroke-width="2" stroke-linecap="round" stroke-linejoin="round"/><g stroke="#2EC5B6" stroke-linecap="round" stroke-width="2"><path d="M351.594 2351.09l3.421 11.19m3.884-7.306l-11.189 3.421"/><path d="M353.218 2351.953l3.42 11.19m3.884-7.306l-11.188 3.421" opacity=".2"/></g><path d="M345.62 3008.302l-10.764 1.18a.293.293 0 00-.21.467l6.43 8.5c.138.182.427.15.52-.058l4.334-9.678c.093-.208-.08-.436-.31-.41" fill="#2E6BD1" opacity=".2"/><path stroke="#2E6BD1" stroke-width="2" stroke-linecap="round" stroke-linejoin="round" d="M344.465 3006.067l-11.803 1.294 7.05 9.32z"/><path d="M269.784 2314.868l-9.441 4.418a.438.438 0 01-.584-.212l-4.407-9.464a.44.44 0 01.211-.585l9.442-4.417a.439.439 0 01.583.212l4.408 9.463a.44.44 0 01-.212.584" fill-opacity=".2" fill="#FF9F1C"/><path stroke="#FF9F1C" stroke-width="2" stroke-linecap="round" stroke-linejoin="round" d="M271.494 2310.735l-10.236 4.79-4.78-10.259 10.238-4.79z"/><path d="M146.784 2973.868l-9.441 4.418a.438.438 0 01-.584-.212l-4.407-9.464a.44.44 0 01.211-.585l9.442-4.417a.439.439 0 01.583.212l4.408 9.463a.44.44 0 01-.212.584" fill-opacity=".2" fill="#FF9F1C"/><path stroke="#FF9F1C" stroke-width="2" stroke-linecap="round" stroke-linejoin="round" d="M148.494 2969.735l-10.236 4.79-4.78-10.259 10.238-4.79z"/><path d="M242.774 3077.66a5.094 5.094 0 11-10.188 0 5.094 5.094 0 0110.188 0" fill="#2EC5B6" opacity=".2"/><path d="M244.724 3079.61a5.094 5.094 0 11-10.188 0 5.094 5.094 0 0110.188 0z" stroke="#2EC5B6" stroke-width="2" stroke-linecap="round" stroke-linejoin="round"/><g stroke-width="2" stroke="#2E6BD1" stroke-linecap="round" stroke-linejoin="round"><path d="M13 3043.87l8.09-8.185 7.878 8.185 7.236-7.517 7.883 8.19 7.424-7.713 7.44 7.729"/><path opacity=".2" d="M15.625 3043.87l8.09-8.185 7.878 8.185 7.236-7.517 7.883 8.19 7.424-7.713 7.44 7.729"/></g><path d="M32.774 2392.66a5.094 5.094 0 11-10.188 0 5.094 5.094 0 0110.188 0" fill="#2E6BD1" opacity=".2"/><path d="M34.724 2394.61a5.094 5.094 0 11-10.188 0 5.094 5.094 0 0110.188 0z" stroke="#2E6BD1" stroke-width="2" stroke-linecap="round" stroke-linejoin="round"/><g stroke="#2EC5B6" stroke-linecap="round" stroke-width="2"><path d="M351.594 1498.09l3.421 11.19m3.884-7.306l-11.189 3.421"/><path d="M353.218 1498.954l3.42 11.188m3.884-7.304l-11.188 3.42" opacity=".2"/></g><path d="M345.62 2155.302l-10.764 1.18a.293.293 0 00-.21.467l6.43 8.5c.138.182.427.15.52-.058l4.334-9.678c.093-.208-.08-.436-.31-.41" fill="#2E6BD1" opacity=".2"/><path stroke="#2E6BD1" stroke-width="2" stroke-linecap="round" stroke-linejoin="round" d="M344.465 2153.067l-11.803 1.294 7.05 9.32z"/><path d="M269.784 1461.868l-9.441 4.418a.438.438 0 01-.584-.212l-4.407-9.464a.44.44 0 01.211-.585l9.442-4.417a.439.439 0 01.583.212l4.408 9.463a.44.44 0 01-.212.584" fill-opacity=".2" fill="#FF9F1C"/><path stroke="#FF9F1C" stroke-width="2" stroke-linecap="round" stroke-linejoin="round" d="M271.494 1457.735l-10.236 4.79-4.78-10.259 10.238-4.79z"/><path d="M146.784 2120.868l-9.441 4.418a.438.438 0 01-.584-.212l-4.407-9.464a.44.44 0 01.211-.585l9.442-4.417a.439.439 0 01.583.212l4.408 9.463a.44.44 0 01-.212.584" fill-opacity=".2" fill="#FF9F1C"/><path stroke="#FF9F1C" stroke-width="2" stroke-linecap="round" stroke-linejoin="round" d="M148.494 2116.735l-10.236 4.79-4.78-10.259 10.238-4.79z"/><path d="M242.774 2224.66a5.094 5.094 0 11-10.188 0 5.094 5.094 0 0110.188 0" fill="#2EC5B6" opacity=".2"/><path d="M244.724 2226.61a5.094 5.094 0 11-10.188 0 5.094 5.094 0 0110.188 0z" stroke="#2EC5B6" stroke-width="2" stroke-linecap="round" stroke-linejoin="round"/><g stroke="#2E6BD1" stroke-linecap="round" stroke-linejoin="round"><g stroke-width="2"><path d="M13 2190.87l8.09-8.185 7.878 8.185 7.236-7.517 7.883 8.19 7.424-7.713 7.44 7.729"/><path opacity=".2" d="M15.625 2190.87l8.09-8.185 7.878 8.185 7.236-7.517 7.883 8.19 7.424-7.713 7.44 7.729"/></g></g><g><path d="M32.774 1539.66a5.094 5.094 0 11-10.188 0 5.094 5.094 0 0110.188 0" fill="#2E6BD1" opacity=".2"/><path d="M34.724 1541.61a5.094 5.094 0 11-10.188 0 5.094 5.094 0 0110.188 0z" stroke="#2E6BD1" stroke-width="2" stroke-linecap="round" stroke-linejoin="round"/></g><g stroke="#2EC5B6" stroke-linecap="round" stroke-width="2"><path d="M351.594 3203.09l3.421 11.19m3.884-7.306l-11.189 3.421"/><path d="M353.218 3203.954l3.42 11.188m3.884-7.304l-11.188 3.42" opacity=".2"/></g><g><path d="M345.62 3860.302l-10.764 1.18a.293.293 0 00-.21.467l6.43 8.5c.138.182.427.15.52-.058l4.334-9.678c.093-.208-.08-.436-.31-.41" fill="#2E6BD1" opacity=".2"/><path stroke="#2E6BD1" stroke-width="2" stroke-linecap="round" stroke-linejoin="round" d="M344.465 3858.067l-11.803 1.294 7.05 9.32z"/></g><g><path d="M269.784 3166.868l-9.441 4.418a.438.438 0 01-.584-.212l-4.407-9.464a.44.44 0 01.211-.585l9.442-4.417a.439.439 0 01.583.212l4.408 9.463a.44.44 0 01-.212.584" fill-opacity=".2" fill="#FF9F1C"/><path stroke="#FF9F1C" stroke-width="2" stroke-linecap="round" stroke-linejoin="round" d="M271.494 3162.735l-10.236 4.79-4.78-10.259 10.238-4.79z"/></g><g><path d="M146.784 3825.868l-9.441 4.418a.438.438 0 01-.584-.212l-4.407-9.464a.44.44 0 01.211-.585l9.442-4.417a.439.439 0 01.583.212l4.408 9.463a.44.44 0 01-.212.584" fill-opacity=".2" fill="#FF9F1C"/><path stroke="#FF9F1C" stroke-width="2" stroke-linecap="round" stroke-linejoin="round" d="M148.494 3821.735l-10.236 4.79-4.78-10.259 10.238-4.79z"/></g><g><path d="M242.774 3929.66a5.094 5.094 0 11-10.188 0 5.094 5.094 0 0110.188 0" fill="#2EC5B6" opacity=".2"/><path d="M244.724 3931.61a5.094 5.094 0 11-10.188 0 5.094 5.094 0 0110.188 0z" stroke="#2EC5B6" stroke-width="2" stroke-linecap="round" stroke-linejoin="round"/></g><g stroke="#2E6BD1" stroke-linecap="round" stroke-linejoin="round"><g stroke-width="2"><path d="M13 3895.87l8.09-8.185 7.878 8.185 7.236-7.517 7.883 8.19 7.424-7.713 7.44 7.729"/><path opacity=".2" d="M15.625 3895.87l8.09-8.185 7.878 8.185 7.236-7.517 7.883 8.19 7.424-7.713 7.44 7.729"/></g></g><g><path d="M32.774 3244.66a5.094 5.094 0 11-10.188 0 5.094 5.094 0 0110.188 0" fill="#2E6BD1" opacity=".2"/><path d="M34.724 3246.61a5.094 5.094 0 11-10.188 0 5.094 5.094 0 0110.188 0z" stroke="#2E6BD1" stroke-width="2" stroke-linecap="round" stroke-linejoin="round"/></g><g><path d="M260.795 5347.387l-9.42-6.773a.315.315 0 00-.504.223l-1.004 11.413a.326.326 0 00.455.326l10.425-4.639a.318.318 0 00.048-.55" fill="#2EC5B6" opacity=".2"/><path stroke="#2EC5B6" stroke-width="2" stroke-linecap="round" stroke-linejoin="round" d="M261.487 5344.77l-10.33-7.427-1.102 12.514z"/></g><g><path d="M16.928 5305.716l-7.22-6.668a.41.41 0 01-.02-.584l6.782-7.214a.42.42 0 01.59-.022l7.217 6.666a.411.411 0 01.02.585l-6.782 7.213a.42.42 0 01-.588.023" fill="#2E6BD1" opacity=".2"/><path stroke="#2E6BD1" stroke-width="2" stroke-linecap="round" stroke-linejoin="round" d="M21.171 5305.737l-7.827-7.228 7.35-7.82 7.828 7.227z"/></g><g><path d="M90.928 4926.716l-7.22-6.667a.41.41 0 01-.02-.584l6.782-7.214a.42.42 0 01.59-.023l7.217 6.666a.411.411 0 01.02.585l-6.782 7.214a.42.42 0 01-.588.022" fill="#2E6BD1" opacity=".2"/><path stroke="#2E6BD1" stroke-width="2" stroke-linecap="round" stroke-linejoin="round" d="M95.171 4926.738l-7.827-7.228 7.35-7.821 7.828 7.228z"/></g><g stroke="#2E6BD1" stroke-linecap="round" stroke-linejoin="round"><g stroke-width="2"><path d="M327 5240.87l8.09-8.185 7.878 8.185 7.236-7.517 7.883 8.19 7.424-7.713 7.44 7.729"/><path opacity=".2" d="M329.625 5240.87l8.09-8.185 7.878 8.185 7.236-7.517 7.883 8.19 7.424-7.713 7.44 7.729"/></g></g><g><path d="M55.784 4538.868l-9.441 4.418a.438.438 0 01-.584-.212l-4.407-9.464a.44.44 0 01.211-.585l9.442-4.417a.439.439 0 01.583.212l4.408 9.463a.44.44 0 01-.212.584" fill-opacity=".2" fill="#FF9F1C"/><path stroke="#FF9F1C" stroke-width="2" stroke-linecap="round" stroke-linejoin="round" d="M57.494 4534.735l-10.236 4.79-4.78-10.259 10.238-4.79z"/></g><g stroke="#FF9F1C" stroke-linecap="round"><g stroke-width="2"><path d="M292.978 4106.474l3.42 11.189m3.885-7.305l-11.189 3.42"/><path d="M294.601 4107.337l3.421 11.189m3.884-7.305l-11.189 3.42" opacity=".2"/></g></g><g><path d="M83.62 4138.302l-10.764 1.18a.293.293 0 00-.21.467l6.43 8.5c.138.182.427.15.52-.058l4.334-9.678c.093-.208-.08-.436-.31-.41" fill="#2E6BD1" opacity=".2"/><path stroke="#2E6BD1" stroke-width="2" stroke-linecap="round" stroke-linejoin="round" d="M82.465 4136.067l-11.803 1.294 7.05 9.32z"/></g><g stroke="#2E6BD1" stroke-linecap="round"><g stroke-width="2"><path d="M330.874 4510.066l5.493 10.33m2.419-7.911l-10.33 5.493"/><path d="M332.632 4510.603l5.493 10.331m2.42-7.912l-10.331 5.493" opacity=".2"/></g></g><g><path d="M325.784 4881.868l-9.441 4.418a.438.438 0 01-.584-.212l-4.407-9.464a.44.44 0 01.211-.585l9.442-4.417a.439.439 0 01.583.212l4.408 9.463a.44.44 0 01-.212.584" fill-opacity=".2" fill="#FF9F1C"/><path stroke="#FF9F1C" stroke-width="2" stroke-linecap="round" stroke-linejoin="round" d="M327.494 4877.735l-10.236 4.79-4.78-10.259 10.238-4.79z"/></g></g></svg>