<svg width="1885" height="5932" xmlns="http://www.w3.org/2000/svg"><g fill="none" fill-rule="evenodd"><g stroke-width="2" stroke="#2EC5B6" stroke-linecap="round" stroke-linejoin="round"><path d="M2 1139.757l9.246-9.003 9.004 9.003 8.268-8.269 9.01 9.01 8.485-8.485 8.502 8.502"/><path opacity=".2" d="M5 1139.757l9.246-9.003 9.004 9.003 8.268-8.269 9.01 9.01 8.485-8.485 8.502 8.502"/></g><g stroke-width="2" stroke="#FF9F1C" stroke-linejoin="round"><path d="M1828 1139.757l9.246-9.003 9.004 9.003 8.268-8.269 9.01 9.01 8.485-8.485 8.502 8.502"/><path opacity=".2" d="M1831 1139.757l9.246-9.003 9.004 9.003 8.268-8.269 9.01 9.01 8.485-8.485 8.502 8.502"/></g><g stroke-width="2" stroke="#FF9F1C" stroke-linejoin="round"><path d="M1168 2355.757l9.246-9.003 9.004 9.003 8.268-8.269 9.01 9.01 8.485-8.485 8.502 8.502"/><path opacity=".2" d="M1171 2355.757l9.246-9.003 9.004 9.003 8.268-8.269 9.01 9.01 8.485-8.485 8.502 8.502"/></g><g stroke-width="2" stroke="#2EC5B6" stroke-linecap="round" stroke-linejoin="round"><path d="M3 3748.757l9.246-9.003 9.004 9.003 8.268-8.269 9.01 9.01 8.485-8.485 8.502 8.502"/><path opacity=".2" d="M6 3748.757l9.246-9.003 9.004 9.003 8.268-8.269 9.01 9.01 8.485-8.485 8.502 8.502"/></g><g stroke-width="2" stroke="#2EC5B6" stroke-linecap="round" stroke-linejoin="round"><path d="M-24 4603.757l9.246-9.003 9.004 9.003 8.268-8.269 9.01 9.01 8.485-8.485 8.502 8.502"/><path opacity=".2" d="M-21 4603.757l9.246-9.003 9.004 9.003 8.268-8.269 9.01 9.01 8.485-8.485 8.502 8.502"/></g><path d="M1282.43 409.542l-16.146 1.815a.452.452 0 00-.314.718l9.644 13.076c.207.281.64.232.78-.088l6.5-14.89a.452.452 0 00-.464-.63" fill="#2EC5B6" opacity=".2"/><path stroke="#2EC5B6" stroke-width="2" stroke-linecap="round" stroke-linejoin="round" d="M1280.698 406.103l-17.706 1.99 10.576 14.338z"/><path d="M676.297 351.321l16.105 2.145a.452.452 0 00.478-.62l-6.194-15.021a.453.453 0 00-.778-.104L676 350.597a.452.452 0 00.298.723" fill="#2E6BD1" opacity=".2"/><path stroke="#2E6BD1" stroke-width="2" stroke-linecap="round" stroke-linejoin="round" d="M677.145 355.077l17.662 2.353-6.794-16.471z"/><path d="M622.196 86.303l-13.214-9.455a.452.452 0 00-.713.323l-1.583 16.17c-.034.348.32.601.638.457l14.794-6.716a.452.452 0 00.077-.778" fill="#2EC5B6" opacity=".2"/><path stroke="#2EC5B6" stroke-width="2" stroke-linecap="round" stroke-linejoin="round" d="M623.21 82.588L608.72 72.22l-1.735 17.732z"/><path d="M1495.576 138.707a7.837 7.837 0 11-15.675 0 7.837 7.837 0 0115.675 0" fill="#FF9F1C" opacity=".2"/><path d="M1498.576 141.707a7.837 7.837 0 11-15.675 0 7.837 7.837 0 0115.675 0z" stroke="#FF9F1C" stroke-width="2" stroke-linecap="round" stroke-linejoin="round"/><path d="M956.576 633.707a7.837 7.837 0 11-15.675 0 7.837 7.837 0 0115.675 0" fill="#FF9F1C" opacity=".2"/><path d="M959.576 636.707a7.837 7.837 0 11-15.675 0 7.837 7.837 0 0115.675 0z" stroke="#FF9F1C" stroke-width="2" stroke-linecap="round" stroke-linejoin="round"/><path d="M1537.576 479.707a7.837 7.837 0 11-15.675 0 7.837 7.837 0 0115.675 0" fill="#2EC5B6" opacity=".2"/><path d="M1540.576 482.707a7.837 7.837 0 11-15.675 0 7.837 7.837 0 0115.675 0z" stroke="#2EC5B6" stroke-width="2" stroke-linecap="round" stroke-linejoin="round"/><path d="M230.002 1501.072l-12.774 5.964a.593.593 0 01-.789-.286l-5.963-12.775a.593.593 0 01.286-.79l12.774-5.962a.594.594 0 01.79.286l5.963 12.775a.593.593 0 01-.287.788" fill-opacity=".2" fill="#FF9F1C"/><path stroke="#FF9F1C" stroke-width="2" stroke-linecap="round" stroke-linejoin="round" d="M232.316 1495.492l-13.85 6.466-6.464-13.848 13.848-6.467z"/><path d="M919.916 110.064l-10.314-9.61a.593.593 0 01-.03-.838l9.61-10.314a.593.593 0 01.84-.031l10.313 9.61a.594.594 0 01.03.84l-9.61 10.314a.593.593 0 01-.839.03" fill="#2E6BD1" opacity=".2"/><path stroke="#2E6BD1" stroke-width="2" stroke-linecap="round" stroke-linejoin="round" d="M925.957 110.12L914.774 99.7l10.418-11.18 11.183 10.417z"/><g stroke="#2EC5B6" stroke-linecap="round" stroke-width="2"><path d="M1245.51 1.581l5.86 17.02m5.58-11.44l-17.02 5.86"/><path d="M1248.052 2.821l5.86 17.02m5.58-11.44l-17.02 5.86" opacity=".2"/></g><g stroke="#2EC5B6" stroke-linecap="round" stroke-width="2"><path d="M559.87 471.33l-4.659 17.386m11.023-6.364l-17.387-4.659"/><path d="M561.284 473.779l-4.659 17.387m11.023-6.364l-17.387-4.66" opacity=".2"/></g><g stroke-width="2" stroke="#2E6BD1" stroke-linecap="round"><path d="M1090.947 384.164l8.45 15.893m3.721-12.172l-15.893 8.45"/><path d="M1093.652 384.991l8.45 15.893m3.721-12.172l-15.893 8.45" opacity=".2"/></g><g stroke-width="2" stroke="#2E6BD1" stroke-linecap="round" stroke-linejoin="round"><path d="M1647 371.757l9.246-9.003 9.004 9.003 8.268-8.269 9.01 9.01 8.485-8.485 8.502 8.502"/><path opacity=".2" d="M1650 371.757l9.246-9.003 9.004 9.003 8.268-8.269 9.01 9.01 8.485-8.485 8.502 8.502"/></g><g stroke-width="2" stroke="#FF9F1C" stroke-linejoin="round"><path d="M396 306.757l9.246-9.003 9.004 9.003 8.268-8.269 9.01 9.01 8.485-8.485 8.502 8.502"/><path opacity=".2" d="M399 306.757l9.246-9.003 9.004 9.003 8.268-8.269 9.01 9.01 8.485-8.485 8.502 8.502"/></g><g stroke-width="2" stroke="#2E6BD1" stroke-linecap="round" stroke-linejoin="round"><path d="M368 826.757l9.246-9.003 9.004 9.003 8.268-8.269 9.01 9.01 8.485-8.485 8.502 8.502"/><path opacity=".2" d="M371 826.757l9.246-9.003 9.004 9.003 8.268-8.269 9.01 9.01 8.485-8.485 8.502 8.502"/></g><g stroke-width="2" stroke="#2E6BD1" stroke-linecap="round"><path d="M1003.87 1218.33l-4.659 17.386m11.023-6.364l-17.387-4.659"/><path d="M1005.284 1220.779l-4.659 17.387m11.023-6.364l-17.387-4.66" opacity=".2"/></g><path d="M1230.405 702.707c0 4.328-3.685 7.837-8.23 7.837s-8.229-3.509-8.229-7.837c0-4.329 3.684-7.837 8.23-7.837s8.23 3.51 8.23 7.838" fill="#2E6BD1" opacity=".2"/><path d="M1233.555 705.707c0 4.328-3.685 7.837-8.23 7.837s-8.23-3.509-8.23-7.837c0-4.328 3.685-7.838 8.23-7.838s8.23 3.51 8.23 7.838z" stroke="#2E6BD1" stroke-width="2" stroke-linecap="round" stroke-linejoin="round"/><path d="M1591.576 836.707a7.837 7.837 0 11-15.675 0 7.837 7.837 0 0115.675 0" fill="#2EC5B6" opacity=".2"/><path d="M1594.576 839.707a7.837 7.837 0 11-15.675 0 7.837 7.837 0 0115.675 0z" stroke="#2EC5B6" stroke-width="2" stroke-linecap="round" stroke-linejoin="round"/><path d="M1691.576 1516.707a7.837 7.837 0 11-15.675 0 7.837 7.837 0 0115.675 0" fill="#2EC5B6" opacity=".2"/><path d="M1694.576 1519.707a7.837 7.837 0 11-15.675 0 7.837 7.837 0 0115.675 0z" stroke="#2EC5B6" stroke-width="2" stroke-linecap="round" stroke-linejoin="round"/><path d="M720.002 1063.072l-12.774 5.964a.593.593 0 01-.789-.286l-5.963-12.775a.593.593 0 01.286-.79l12.774-5.962a.594.594 0 01.79.286l5.963 12.775a.593.593 0 01-.287.788" fill-opacity=".2" fill="#FF9F1C"/><path stroke="#FF9F1C" stroke-width="2" stroke-linecap="round" stroke-linejoin="round" d="M722.316 1057.492l-13.85 6.466-6.464-13.848 13.848-6.467z"/><g stroke-width="2" stroke="#2E6BD1" stroke-linecap="round"><path d="M1385.345 2107.12l6.743 16.69m4.973-11.716l-16.69 6.743"/><path d="M1387.948 2108.226l6.743 16.69m4.973-11.717l-16.689 6.743" opacity=".2"/></g><path d="M472.405 2091.707c0 4.328-3.685 7.837-8.23 7.837s-8.229-3.509-8.229-7.837c0-4.329 3.684-7.837 8.23-7.837s8.23 3.51 8.23 7.838" fill="#2E6BD1" opacity=".2"/><path d="M475.555 2094.707c0 4.328-3.685 7.837-8.23 7.837s-8.23-3.509-8.23-7.837c0-4.328 3.685-7.838 8.23-7.838s8.23 3.51 8.23 7.838z" stroke="#2E6BD1" stroke-width="2" stroke-linecap="round" stroke-linejoin="round"/><path d="M764.002 2179.072l-12.774 5.964a.593.593 0 01-.789-.286l-5.963-12.775a.593.593 0 01.286-.79l12.774-5.962a.594.594 0 01.79.286l5.963 12.775a.593.593 0 01-.287.788" fill="#2EC5B6" opacity=".2"/><path stroke="#2EC5B6" stroke-width="2" stroke-linecap="round" stroke-linejoin="round" d="M766.316 2173.492l-13.85 6.466-6.464-13.848 13.848-6.467z"/><g stroke-width="2" stroke="#2EC5B6" stroke-linecap="round" stroke-linejoin="round"><path d="M1294 1629.757l9.246-9.003 9.004 9.003 8.268-8.269 9.01 9.01 8.485-8.485 8.502 8.502"/><path opacity=".2" d="M1297 1629.757l9.246-9.003 9.004 9.003 8.268-8.269 9.01 9.01 8.485-8.485 8.502 8.502"/></g><path d="M239.576 2608.707a7.837 7.837 0 11-15.675 0 7.837 7.837 0 0115.675 0" fill="#FF9F1C" opacity=".2"/><path d="M242.576 2611.707a7.837 7.837 0 11-15.675 0 7.837 7.837 0 0115.675 0z" stroke="#FF9F1C" stroke-width="2" stroke-linecap="round" stroke-linejoin="round"/><path d="M732.43 1511.542l-16.146 1.815a.452.452 0 00-.314.718l9.644 13.076c.207.281.64.232.78-.088l6.5-14.89a.452.452 0 00-.464-.63" fill="#FF9F1C" opacity=".2"/><path stroke="#FF9F1C" stroke-width="2" stroke-linecap="round" stroke-linejoin="round" d="M730.698 1508.103l-17.706 1.99 10.576 14.338z"/><g stroke-width="2" stroke="#2E6BD1" stroke-linecap="round"><path d="M1499.87 2590.33l-4.659 17.386m11.023-6.364l-17.387-4.659"/><path d="M1501.284 2592.779l-4.659 17.386m11.023-6.364l-17.387-4.658" opacity=".2"/></g><path d="M1102.405 2721.707c0 4.328-3.685 7.837-8.23 7.837s-8.229-3.509-8.229-7.837c0-4.329 3.684-7.837 8.23-7.837s8.23 3.51 8.23 7.838" fill="#2E6BD1" opacity=".2"/><path d="M1105.555 2724.707c0 4.328-3.685 7.837-8.23 7.837s-8.23-3.509-8.23-7.837c0-4.328 3.685-7.838 8.23-7.838s8.23 3.51 8.23 7.838z" stroke="#2E6BD1" stroke-width="2" stroke-linecap="round" stroke-linejoin="round"/><path d="M911.43 2503.542l-16.146 1.815a.452.452 0 00-.314.718l9.644 13.076c.207.281.64.232.78-.088l6.5-14.89a.452.452 0 00-.464-.63" fill="#FF9F1C" opacity=".2"/><path stroke="#FF9F1C" stroke-width="2" stroke-linecap="round" stroke-linejoin="round" d="M909.698 2500.103l-17.706 1.99 10.576 14.338z"/><g stroke="#2EC5B6" stroke-linecap="round" stroke-width="2"><path d="M1027.45 1917v18m9.45-9H1018"/><path d="M1029.55 1919v18m9.45-9h-18.9" opacity=".2"/></g><path d="M1544.576 2876.707a7.837 7.837 0 11-15.675 0 7.837 7.837 0 0115.675 0" fill="#FF9F1C" opacity=".2"/><path d="M1547.576 2879.707a7.837 7.837 0 11-15.675 0 7.837 7.837 0 0115.675 0z" stroke="#FF9F1C" stroke-width="2" stroke-linecap="round" stroke-linejoin="round"/><path d="M488.576 3813.707a7.837 7.837 0 11-15.675 0 7.837 7.837 0 0115.675 0" fill="#FF9F1C" opacity=".2"/><path d="M491.576 3816.707a7.837 7.837 0 11-15.675 0 7.837 7.837 0 0115.675 0z" stroke="#FF9F1C" stroke-width="2" stroke-linecap="round" stroke-linejoin="round"/><path d="M1412.576 3291.707a7.837 7.837 0 11-15.675 0 7.837 7.837 0 0115.675 0" fill="#FF9F1C" opacity=".2"/><path d="M1415.576 3294.707a7.837 7.837 0 11-15.675 0 7.837 7.837 0 0115.675 0z" stroke="#FF9F1C" stroke-width="2" stroke-linecap="round" stroke-linejoin="round"/><g stroke-width="2" stroke="#2E6BD1" stroke-linecap="round"><path d="M1242.344 3004.12l6.743 16.69m4.974-11.716l-16.69 6.743"/><path d="M1244.948 3005.226l6.743 16.689m4.973-11.716l-16.69 6.743" opacity=".2"/></g><path d="M1825.002 2275.072l-12.774 5.964a.593.593 0 01-.789-.286l-5.963-12.775a.593.593 0 01.286-.79l12.774-5.962a.594.594 0 01.79.286l5.963 12.775a.593.593 0 01-.287.788" fill="#2EC5B6" opacity=".2"/><path stroke="#2EC5B6" stroke-width="2" stroke-linecap="round" stroke-linejoin="round" d="M1827.316 2269.492l-13.85 6.466-6.464-13.848 13.848-6.467z"/><g><path d="M1024.405 3445.707c0 4.328-3.685 7.837-8.23 7.837s-8.229-3.509-8.229-7.837c0-4.329 3.684-7.837 8.23-7.837s8.23 3.51 8.23 7.838" fill="#2E6BD1" opacity=".2"/><path d="M1027.555 3448.707c0 4.328-3.685 7.837-8.23 7.837s-8.23-3.509-8.23-7.837c0-4.328 3.685-7.838 8.23-7.838s8.23 3.51 8.23 7.838z" stroke="#2E6BD1" stroke-width="2" stroke-linecap="round" stroke-linejoin="round"/></g><g><path d="M1256.576 4613.707a7.837 7.837 0 11-15.675 0 7.837 7.837 0 0115.675 0" fill="#2EC5B6" opacity=".2"/><path d="M1259.576 4616.707a7.837 7.837 0 11-15.675 0 7.837 7.837 0 0115.675 0z" stroke="#2EC5B6" stroke-width="2" stroke-linecap="round" stroke-linejoin="round"/></g><g><path d="M263.002 3224.072l-12.774 5.964a.593.593 0 01-.789-.286l-5.963-12.775a.593.593 0 01.286-.79l12.774-5.962a.594.594 0 01.79.286l5.963 12.775a.593.593 0 01-.287.788" fill-opacity=".2" fill="#FF9F1C"/><path stroke="#FF9F1C" stroke-width="2" stroke-linecap="round" stroke-linejoin="round" d="M265.316 3218.492l-13.85 6.466-6.464-13.848 13.848-6.467z"/></g><g stroke="#2E6BD1" stroke-linecap="round" stroke-linejoin="round"><g stroke-width="2"><path d="M1502 3435.757l9.246-9.003 9.004 9.003 8.268-8.269 9.01 9.01 8.485-8.485 8.502 8.502"/><path opacity=".2" d="M1505 3435.757l9.246-9.003 9.004 9.003 8.268-8.269 9.01 9.01 8.485-8.485 8.502 8.502"/></g></g><g stroke="#2E6BD1" stroke-linecap="round"><g stroke-width="2"><path d="M1056.87 3827.33l-4.659 17.386m11.023-6.364l-17.387-4.659"/><path d="M1058.284 3829.779l-4.659 17.386m11.023-6.364l-17.387-4.658" opacity=".2"/></g></g><g stroke="#2EC5B6" stroke-linecap="round" stroke-width="2"><path d="M1716.87 5782.33l-4.659 17.386m11.023-6.364l-17.387-4.659"/><path d="M1718.284 5784.779l-4.659 17.387m11.023-6.364l-17.387-4.66" opacity=".2"/></g><g><path d="M1401.576 3747.707a7.837 7.837 0 11-15.675 0 7.837 7.837 0 0115.675 0" fill="#2EC5B6" opacity=".2"/><path d="M1404.576 3750.707a7.837 7.837 0 11-15.675 0 7.837 7.837 0 0115.675 0z" stroke="#2EC5B6" stroke-width="2" stroke-linecap="round" stroke-linejoin="round"/></g><g stroke="#FF9F1C" stroke-linejoin="round"><g stroke-width="2"><path d="M908 5061.757l9.246-9.003 9.004 9.003 8.268-8.269 9.01 9.01 8.485-8.485 8.502 8.502"/><path opacity=".2" d="M911 5061.757l9.246-9.003 9.004 9.003 8.268-8.269 9.01 9.01 8.485-8.485 8.502 8.502"/></g></g><g stroke="#2E6BD1" stroke-linecap="round"><g stroke-width="2"><path d="M600.87 2846.33l-4.66 17.386m11.024-6.364l-17.387-4.659"/><path d="M602.284 2848.779l-4.659 17.387m11.023-6.364l-17.387-4.66" opacity=".2"/></g></g><g stroke="#2E6BD1" stroke-linecap="round"><g stroke-width="2"><path d="M267.87 3991.33l-4.659 17.386m11.023-6.364l-17.387-4.658"/><path d="M269.284 3993.78l-4.659 17.386m11.023-6.364l-17.387-4.659" opacity=".2"/></g></g><g><path d="M1256.405 4166.707c0 4.328-3.685 7.837-8.23 7.837s-8.229-3.509-8.229-7.837c0-4.329 3.684-7.837 8.23-7.837s8.23 3.51 8.23 7.838" fill="#2E6BD1" opacity=".2"/><path d="M1259.555 4169.707c0 4.328-3.685 7.837-8.23 7.837s-8.23-3.509-8.23-7.837c0-4.328 3.685-7.838 8.23-7.838s8.23 3.51 8.23 7.838z" stroke="#2E6BD1" stroke-width="2" stroke-linecap="round" stroke-linejoin="round"/></g><g><path d="M897.576 5441.707a7.837 7.837 0 11-15.675 0 7.837 7.837 0 0115.675 0" fill="#2EC5B6" opacity=".2"/><path d="M900.576 5444.707a7.837 7.837 0 11-15.675 0 7.837 7.837 0 0115.675 0z" stroke="#2EC5B6" stroke-width="2" stroke-linecap="round" stroke-linejoin="round"/></g><g><path d="M551.576 4207.707a7.837 7.837 0 11-15.675 0 7.837 7.837 0 0115.675 0" fill="#2EC5B6" opacity=".2"/><path d="M554.576 4210.707a7.837 7.837 0 11-15.675 0 7.837 7.837 0 0115.675 0z" stroke="#2EC5B6" stroke-width="2" stroke-linecap="round" stroke-linejoin="round"/></g><g><path d="M955.002 4413.072l-12.774 5.964a.593.593 0 01-.789-.286l-5.963-12.775a.593.593 0 01.286-.79l12.774-5.962a.594.594 0 01.79.286l5.963 12.775a.593.593 0 01-.287.788" fill-opacity=".2" fill="#FF9F1C"/><path stroke="#FF9F1C" stroke-width="2" stroke-linecap="round" stroke-linejoin="round" d="M957.316 4407.492l-13.85 6.466-6.464-13.848 13.848-6.467z"/></g><g><path d="M490.002 5290.072l-12.774 5.964a.593.593 0 01-.789-.286l-5.963-12.775a.593.593 0 01.286-.79l12.774-5.962a.594.594 0 01.79.286l5.963 12.775a.593.593 0 01-.287.788" fill-opacity=".2" fill="#FF9F1C"/><path stroke="#FF9F1C" stroke-width="2" stroke-linecap="round" stroke-linejoin="round" d="M492.316 5284.492l-13.85 6.466-6.464-13.848 13.848-6.467z"/></g><g stroke="#2E6BD1" stroke-linecap="round" stroke-linejoin="round"><g stroke-width="2"><path d="M1529 4290.757l9.246-9.003 9.004 9.003 8.268-8.269 9.01 9.01 8.485-8.485 8.502 8.502"/><path opacity=".2" d="M1532 4290.757l9.246-9.003 9.004 9.003 8.268-8.269 9.01 9.01 8.485-8.485 8.502 8.502"/></g></g><g stroke="#2EC5B6" stroke-linecap="round" stroke-linejoin="round"><g stroke-width="2"><path d="M210 5929.757l9.246-9.003 9.004 9.003 8.268-8.269 9.01 9.01 8.485-8.485 8.502 8.502"/><path opacity=".2" d="M213 5929.757l9.246-9.003 9.004 9.003 8.268-8.269 9.01 9.01 8.485-8.485 8.502 8.502"/></g></g><g><path d="M623.195 4940.303l-13.213-9.455a.452.452 0 00-.714.323l-1.582 16.17c-.035.348.32.601.638.457l14.794-6.716a.452.452 0 00.077-.779" fill="#2EC5B6" opacity=".2"/><path stroke="#2EC5B6" stroke-width="2" stroke-linecap="round" stroke-linejoin="round" d="M624.21 4936.588l-14.49-10.369-1.735 17.732z"/></g><g><path d="M1432.195 5420.302l-13.213-9.455a.452.452 0 00-.714.324l-1.583 16.17c-.034.348.32.6.639.457l14.794-6.716a.452.452 0 00.076-.779" fill="#2E6BD1" opacity=".2"/><path stroke="#2E6BD1" stroke-width="2" stroke-linecap="round" stroke-linejoin="round" d="M1433.209 5416.588l-14.49-10.37-1.734 17.733z"/></g><g><path d="M957.195 5796.302l-13.214-9.455a.452.452 0 00-.713.324l-1.583 16.17c-.034.348.32.6.639.457l14.793-6.716a.452.452 0 00.077-.779" fill="#2E6BD1" opacity=".2"/><path stroke="#2E6BD1" stroke-width="2" stroke-linecap="round" stroke-linejoin="round" d="M958.209 5792.588l-14.49-10.37-1.734 17.733z"/></g><g><path d="M393.195 4720.302l-13.213-9.455a.452.452 0 00-.714.324l-1.583 16.17c-.034.348.32.6.639.457l14.793-6.716a.452.452 0 00.077-.779" fill="#2E6BD1" opacity=".2"/><path stroke="#2E6BD1" stroke-width="2" stroke-linecap="round" stroke-linejoin="round" d="M394.209 4716.588l-14.49-10.37-1.734 17.733z"/></g><g fill="#FF9F1C"><path d="M1459.391 4922.498l4.926-17.13.742-2.156 3.404 1.173-.742 2.155-6.703 16.518-1.627-.56zm-3.486 7.176l1.368-3.971 3.48 1.198-1.368 3.971-3.48-1.198z"/><path d="M1460.011 4923.77l4.926-17.13.742-2.156 3.404 1.172-.742 2.155-6.703 16.518-1.627-.56zm-3.486 7.175l1.368-3.971 3.48 1.198-1.368 3.971-3.48-1.198z" opacity=".2"/></g></g></svg>